<svg width="868" height="487" fill="none" xmlns="http://www.w3.org/2000/svg"><path d="M163.051 405.884c-.454-19.553-3.796-39.237-11.818-57.076-8.022-17.838-20.949-33.77-37.881-43.56-12.066-6.974-28.571-10.196-39.132-1.105-3.524 3.035-5.979 7.144-7.747 11.444-4.627 11.256-4.747 24.292-.327 35.629 3.718 9.54 10.386 17.637 17.576 24.925 19.228 19.494 44.615 34.92 71.996 34.798M159.541 445.11c-11.795-13.275-28.555-21.964-46.131-24.299-6.224-.826-20.006-2.997-23.697 3.766-3.561 6.522 4.93 16.481 9.27 20.121 5.102 4.279 10.603 8.203 16.793 10.657 14.558 5.774 32.346 2.266 43.623-8.604M615.896 409.365c-9.795-27.917-13.566-58.848-4.856-87.124 8.71-28.274 31.502-53.171 60.487-59.113 3.976-.814 8.143-1.27 12.063-.217 3.953 1.063 7.365 3.589 10.287 6.457 13.898 13.644 17.724 35.277 13.55 54.303-4.173 19.024-15.284 35.817-27.809 50.732-13.776 16.406-31.172 31.948-52.469 34.274M629.52 441.137c4.004-6.318 10.644-10.425 17.205-14.018 13.257-7.256 27.377-13.389 42.342-15.487 8.124-1.137 17.994-.224 22.098 6.879 3.409 5.898 1.146 13.536-2.642 19.197-6.213 9.287-16.417 15.804-27.454 17.539-7.004 1.101-14.158.354-21.183-.61-9.745-1.334-19.672-3.164-28.166-8.125" fill="#D3E8E8"/><path d="M664.938 297.223a920.702 920.702 0 0 0-63.386 88.139 919.98 919.98 0 0 0-15.892 26.056c-.618 1.052 1.016 2.001 1.632.953a919.192 919.192 0 0 1 59.897-89.507 915.632 915.632 0 0 1 19.084-24.305c.76-.936-.568-2.28-1.335-1.336ZM688.046 434.24a351.781 351.781 0 0 1-80.117 7.091c-1.215-.032-1.215 1.856 0 1.888a353.851 353.851 0 0 0 80.62-7.159c1.189-.244.686-2.065-.503-1.82ZM89.996 335.46a457.549 457.549 0 0 1 89.714 70.842 459.105 459.105 0 0 1 21.553 23.514c.791.925 2.122-.416 1.335-1.334a459.406 459.406 0 0 0-84.453-76.9 459.225 459.225 0 0 0-27.196-17.752c-1.043-.63-1.993 1.002-.953 1.63ZM109.37 436.868a273.832 273.832 0 0 0 64.007 13.301c6.181.526 12.377.834 18.578.94 1.218.02 1.218-1.868 0-1.888a271.621 271.621 0 0 1-64.263-8.834 275.485 275.485 0 0 1-17.82-5.34c-1.154-.388-1.65 1.434-.502 1.821Z" fill="#fff"/><path d="m164.23 486.12 474.056-.949-53.098-315.567c-2.05-12.18-12.607-21.092-24.96-21.067l-422.845.845c-15.603.032-27.447 14.063-24.858 29.451L164.23 486.12Z" fill="#E1E8F0"/><path d="M198.753 256.551c-5.999-4.73-13.668-4.73-17.132 0-3.464 4.732-1.408 12.403 4.59 17.133 5.999 4.73 13.67 4.73 17.132 0 3.464-4.73 1.408-12.401-4.59-17.133Z" fill="#8FC6C6"/><path d="M219.419 265.647h257.888" stroke="#206BC7" stroke-width="1.511" stroke-miterlimit="10"/><path d="M221.337 359.23c-5.999-4.731-13.67-4.731-17.134 0-3.462 4.731-1.406 12.401 4.592 17.133 5.998 4.729 13.668 4.729 17.132 0 3.464-4.732 1.408-12.402-4.59-17.133Z" fill="#8FC6C6"/><path d="M242.003 368.324h257.886" stroke="#206BC7" stroke-width="1.511" stroke-miterlimit="10"/><path d="m112.916 181.917-.391-3.084c-2.589-15.388 9.253-29.418 24.858-29.45l422.845-.847c12.353-.024 22.909 8.888 24.96 21.068l2.177 12.948c1.133-1.975-474.449-.635-474.449-.635Z" fill="#206BC7"/><path d="M152.013 163.406c-3.112-2.455-7.091-2.455-8.888 0-1.796 2.454-.73 6.433 2.382 8.888 3.111 2.453 7.09 2.453 8.887 0 1.796-2.455.731-6.434-2.381-8.888Z" fill="#fff"/><path d="M172.546 163.406c-3.111-2.455-7.091-2.455-8.888 0-1.796 2.454-.729 6.433 2.383 8.888 3.112 2.453 7.09 2.453 8.886 0 1.798-2.455.731-6.434-2.381-8.888Z" fill="#FFB701"/><path d="M193.199 163.406c-3.112-2.455-7.09-2.455-8.888 0-1.796 2.454-.729 6.433 2.382 8.888 3.112 2.453 7.09 2.453 8.888 0 1.796-2.455.73-6.434-2.382-8.888Z" fill="#8FC6C6"/><path d="M482.809 116.356c0-8.928-7.238-16.165-16.165-16.165-8.928 0-16.165 7.237-16.165 16.165 0 8.928 7.237 16.165 16.165 16.165 8.927 0 16.165-7.237 16.165-16.165Z" fill="#206BC7"/><path d="M482.809 116.356c0-8.928-7.238-16.165-16.165-16.165-8.928 0-16.165 7.237-16.165 16.165 0 8.928 7.237 16.165 16.165 16.165 8.927 0 16.165-7.237 16.165-16.165Z" stroke="#206BC7" stroke-width="3.241" stroke-miterlimit="10"/><path d="m436.001 170.516 40.751-67.828c2.367-5.626-4.259-22.552-8.548-26.918-11.744-11.955-28.708-17.967-45.428-19.126-9.275-.644-27.025 9.441-32.297 21.099-5.84 12.912-9.295 25.621-25.371 31.901-34.329 13.409-27.38 50.99-27.38 50.99" fill="#000400"/><path d="M430.247 64.942a37.79 37.79 0 0 1 9.989-5.22 81.815 81.815 0 0 0-10.245-2.26c-.608.21-1.22.405-1.823.645-16.541 6.579-28.021 29.424-23.874 46.681 1.965-.029 6.477.867 8.373.503.301-14.559 5.585-31.624 17.58-40.35Z" fill="#206BC7"/><path d="M415.359 106.313a1.422 1.422 0 0 1-1.201 1.073c-.19.024-.382.009-.566-.043-3.244-.928-10.542-3.726-13.99 4.471-3.486 8.287 3.34 15.42 8.188 17.073 1.4.478 4.597 1.691 5.266 3.008 2.056 4.055-3.74 36.191-9.265 47.076-.415 20.795 30.645 49.232 30.645 49.232s8.173-11.521 14.735-36.672c0 0 2.044-45.38 2.345-45.549 5.077-2.848 25.177-1.288 24.724-36.816-.42-32.91-23.325-37.017-29.276-37.605-5.02-.498-21.917-4.124-31.605 34.752Z" fill="#FFB4A5"/><path d="M463.492 72.984s-19.009 43.693-49.125 34.323c0 0-7.108-56.244 49.125-34.323Z" fill="#000400"/><path d="M402.6 115.314s8.131-9.331 10.552 6.916Z" fill="#FF8164"/><path d="M443.567 114.285a7.904 7.904 0 0 1 4.849 3.641 7.926 7.926 0 0 1-13.644 8.065 7.926 7.926 0 0 1 .486-8.792 7.919 7.919 0 0 1 8.309-2.914ZM474.545 126.066a7.927 7.927 0 0 1 1.4-14.768s.887 9.355-1.4 14.768Z" fill="#FF9E87"/><path d="m469.232 120.33-13.255 2.523s4.524 5.737 8.234 4.337c3.71-1.401 5.021-6.86 5.021-6.86Z" fill="#fff"/><path d="m462.705 109.386-.494 8.816 4.541-.649a1.116 1.116 0 0 0 .949-1.242 1.113 1.113 0 0 0-.214-.529l-4.782-6.396Z" fill="#FF8164"/><path d="M448.661 102.079c-1.405 1.126.562-3.629 2.536-4.293 1.978-.665 4.044.179 4.618 1.885 0 0-3.78-.297-7.154 2.408ZM472.921 99.946c1.536.938-1.02-3.528-3.064-3.934-2.044-.408-3.986.692-4.34 2.458 0 0 3.712-.776 7.404 1.476ZM453.649 110.069c.171 1.548.916 2.735 1.667 2.654.749-.083 1.221-1.404 1.051-2.952-.171-1.548-.916-2.736-1.668-2.654-.75.083-1.22 1.404-1.05 2.952ZM465.861 107.969c.163 1.477.875 2.612 1.591 2.533.717-.079 1.167-1.34 1.004-2.819-.163-1.478-.876-2.612-1.592-2.533-.716.079-1.165 1.341-1.003 2.819Z" fill="#000"/><path d="M452.856 145.313s-7.217 1.524-14.401-1.005c-7.184-2.528 6.908 15.71 14.401 1.005Z" fill="#FF8164"/><path d="M408.707 486.061c2.322-9.764 4.134-17.415 5.313-22.379 1.625-6.841 12.197-5.34 11.372 1.644-.595 5.039-1.079 12.093-1.468 20.735h80.201c-5.149-70.222-16.596-132.997-38.756-169.625-29.596-4.08-65.714 1.253-95.723 2.148-14.931 26.393-22.823 45.726-31.403 79.283-2.768 10.832-9.723 44.18-18.42 88.194h88.884Z" fill="#2D2F3D"/><mask id="a" style="mask-type:luminance" maskUnits="userSpaceOnUse" x="330" y="329" width="135" height="99"><path d="M330.814 329.266H464.94v98.328H330.814v-98.328Z" fill="#fff"/></mask><g mask="url(#a)"><path d="m464.94 329.743-134.126 97.852s10.38-57.688 32.028-98.328l102.098.476Z" fill="#000" opacity=".21"/></g><path d="M605.244 260.859s-26.124 24.113-68.345 54.872l-.064.152c-.07-.033-.141-.075-.211-.109-2.572.406-12.64 5.556-14.775 5.37 0 0-26.153 10.246-44.209-49.736-2.669-5.365-40.584-70.089-41.196-70.834 0 0 4.479-13.479 4.824-13.775 23.905-20.552 49.755 61.806 73.247 89.815a3.454 3.454 0 0 0 1.83 1.135 3.454 3.454 0 0 0 2.148-.167c2.895-1.191 6.872-3.159 6.872-3.159l24.617-12.057 43.204-28.133s3.35-14.903 4.522-16.578c2.176-.67 11.052-1.005 11.052-1.005s27.296-23.033 27.296-17.416c0 3.349-14.736 19.928-14.736 19.928s7.534 9.209 8.037 15.239c.503 6.028-24.113 26.458-24.113 26.458Z" fill="#FF9E87"/><mask id="b" style="mask-type:luminance" maskUnits="userSpaceOnUse" x="597" y="217" width="31" height="21"><path d="M597.525 217.978h30.388v19.407h-30.388v-19.407Z" fill="#fff"/></mask><g mask="url(#b)" fill="#D18478"><path d="M597.525 218.285c2.949-.196 5.895-.296 8.837-.3 1.472-.021 2.943.011 4.414.017l2.206.048c.73.058 1.436-.082 2.446.268.489.186.948.623 1.172 1.088.22.45.318.95.286 1.45-.058.956-.55 1.82-1.172 2.409-1.274 1.144-2.784 1.673-4.205 2.031a132.21 132.21 0 0 1-8.629 2.03 135.231 135.231 0 0 1 8.241-3.144c1.376-.473 2.709-1.038 3.584-1.932.419-.44.681-.945.707-1.473.014-.525-.202-.944-.558-1.061-.384-.178-1.192-.151-1.92-.192l-2.205-.096c-1.468-.088-2.937-.152-4.404-.27a134.514 134.514 0 0 1-8.8-.873Z"/><path d="M620.096 219.128c-.846.944-1.699 1.857-2.468 2.844a50.601 50.601 0 0 0-2.251 2.967c-1.413 2.032-2.683 4.15-3.737 6.373l-.295-.976c.819.505 1.939.349 3.011-.148 1.097-.453 2.085-1.22 3.17-1.935a139.076 139.076 0 0 1 3.228-2.122c1.11-.664 2.186-1.371 3.322-1.998-.93.906-1.918 1.731-2.875 2.599-.977.839-1.966 1.664-2.967 2.475-.98.808-2.021 1.66-3.272 2.284a6.339 6.339 0 0 1-2.08.625c-.758.072-1.606-.069-2.304-.483l-.598-.356.304-.62a30.877 30.877 0 0 1 4.169-6.429 28.599 28.599 0 0 1 2.647-2.757c.961-.835 1.93-1.654 2.996-2.343Z"/><path d="M615.012 231.129c-.119.76-.287 1.514-.186 2.187.062.643.472 1.227.907 1.405.396.163.889-.024 1.54-.408a55.103 55.103 0 0 0 1.943-1.089c1.296-.724 2.564-1.496 3.842-2.267 1.278-.777 2.543-1.581 3.883-2.346-1.864 2.457-4.323 4.388-6.976 5.925-.672.372-1.356.723-2.051 1.052-.35.156-.748.336-1.228.427-.473.102-1.08.029-1.525-.268-.891-.587-1.169-1.588-1.072-2.438.116-.849.501-1.54.923-2.18Z"/><path d="M627.913 234.312c-.335.888-1.028 1.628-1.848 2.141-.821.53-1.783.818-2.755.914-.974.069-1.972-.056-2.869-.443-.893-.371-1.7-.987-2.175-1.807.808.315 1.648.541 2.504.675.8.117 1.61.141 2.415.071.8-.054 1.588-.224 2.369-.468a11.895 11.895 0 0 0 2.359-1.083Z"/></g><path d="M438.368 186.399s12.359-11.313 28.233-1.918c15.876 9.393 45.474 73.717 54.746 86.425l37.678-23.109s20.444 32.093 28.133 38.181c0 0-57.881 52.081-79.375 42.198-21.495-9.881-69.415-141.777-69.415-141.777Z" fill="#8FC6C6"/><mask id="c" style="mask-type:luminance" maskUnits="userSpaceOnUse" x="438" y="182" width="56" height="129"><path d="M438.368 182.397h54.776v128.436h-54.776V182.397Z" fill="#fff"/></mask><g mask="url(#c)"><path d="M485.179 248.417c-7.563-23.56-21.139-44.311-37.999-62.261-1.113-1.186-1.733-2.472-1.976-3.759-4.277 1.668-6.836 4.003-6.836 4.003s31.313 86.182 54.669 124.434c.614-21.112-1.357-42.163-7.858-62.417Z" fill="#749E9D" opacity=".93"/></g><path d="M449.841 178.133c-.861 2.09 32.355 65.388 31.328 85.879-1.033 20.648-4.628 58.045-3.529 61.149 0 0-26.527 9.976-114.894-3.94.686-17.829 5.826-130.128 5.826-130.128s28.9-17.766 36.391-18.318c0 0 5.296 7.089 12.989 9.077 5.125 1.324 11.067 2.339 16.636 2.453 9.392.192 11.233-1.148 15.253-6.172Z" fill="#8FC6C6"/><mask id="d" style="mask-type:luminance" maskUnits="userSpaceOnUse" x="362" y="189" width="108" height="140"><path d="M362.747 189.288h106.854v139.337H362.747V189.288Z" fill="#fff"/></mask><g mask="url(#d)"><path d="M427.403 314.781c-61.291-29.472-46.308-93.865-55.84-125.493-1.857 1.111-2.991 1.807-2.991 1.807s-5.138 112.298-5.825 130.127c61.981 9.76 93.536 7.767 106.856 5.707-6.438-3.236-35.619-8.984-42.2-12.148Z" fill="#749E9D" opacity=".93"/></g><path d="M422.535 120.169c0-8.928-7.238-16.166-16.165-16.166s-16.166 7.238-16.166 16.166 7.239 16.165 16.166 16.165 16.165-7.237 16.165-16.165Z" fill="#206BC7"/><path d="M422.535 120.169c0-8.928-7.238-16.166-16.165-16.166s-16.166 7.238-16.166 16.166 7.239 16.165 16.166 16.165 16.165-7.237 16.165-16.165Z" stroke="#206BC7" stroke-width="3.241" stroke-miterlimit="10"/><path d="m415.012 122.097 9.231 9.96a15.21 15.21 0 0 0 13.906 4.62l25.216-4.642" stroke="#206BC7" stroke-width="1.511" stroke-miterlimit="10"/><path d="m464.543 134.015-4.432.907a2.43 2.43 0 0 1-2.866-1.891l-.11-.545a2.424 2.424 0 0 1 1.89-2.864l4.434-.907a2.429 2.429 0 0 1 2.864 1.891l.11.547c.129.63.002 1.286-.352 1.823a2.43 2.43 0 0 1-1.538 1.039Z" fill="#206BC7"/><path d="M416.995 120.169a10.628 10.628 0 1 0-21.252-.336 10.628 10.628 0 0 0 21.252.336Z" stroke="#000400" stroke-width="1.511" stroke-miterlimit="10"/><path d="M386.066 188.773c-17.107-13.933-57.418 37.98-57.418 37.98l-33.845 39.9-56.024-48.929c-.808-4.891-2.324-13.186-3.886-17.04-1.667-4.114-1.08-10.723-.636-14.02.138-1.027-.884-1.847-1.842-1.447-1.626.681-3.63 2.185-3.93 5.48-.323 3.56-2.1 8.78-2.231 11.609-.032.68-.623 1.007-1.256.758-2.923-1.152-4.207-2.862-8.072-6.032-1.26-1.268-4.793-4.3-8.473-9.803-3.68-5.504-8.678-13.136-10.386-10.401-1.22 1.952 5.314 13.329 6.487 14.932 2.515 3.432 5.205 10.085 5.273 10.342.294 1.114-8.097-6.85-11.718-11.798-3.62-4.948-6.992-10.203-8.936-9.995-1.943.209.844 5.245.844 5.245s-3.69-2.974-4.682-1.744c-.668.83 3.148 8.96 5.982 14.316-5.196-3.712-5.218-.892-5.218-.892s8.031 12.648 11.763 15.008c3.004 1.9 7.015 7.108 7.689 8.16.646 1.006 11.044 11.487 20.974 16.346 8.477 11.385 75.735 101.122 84.094 93.525 62.463-56.785 99.778-121.681 75.447-141.5Z" fill="#FF9E87"/><mask id="e" style="mask-type:luminance" maskUnits="userSpaceOnUse" x="190" y="186" width="39" height="33"><path d="M190.306 186.22h37.772v32.309h-37.772V186.22Z" fill="#fff"/></mask><g mask="url(#e)" fill="#D18478"><path d="m191.169 197.64 2.962 2.834c.995.898 1.983 1.723 3.068 2.422 1.074.712 2.256 1.358 3.422 2.164 1.186.766 2.262 1.716 3.298 2.666l-1.558-.01a67.144 67.144 0 0 1 3.68-2.779c1.277-.869 2.576-1.715 3.989-2.431-.888 1.314-1.887 2.496-2.908 3.656a68.203 68.203 0 0 1-3.215 3.306l-.738.716-.822-.728c-.986-.876-2.042-1.636-3.097-2.424-1.068-.758-2.229-1.512-3.331-2.45a15.043 15.043 0 0 1-2.836-3.216 19.176 19.176 0 0 1-1.914-3.726ZM226.862 204.537c.219 1.269.359 2.416.495 3.577.124 1.154.225 2.294.305 3.432l.417 6.984c-1.014-.825-1.636-2-2.084-3.165a13.209 13.209 0 0 1-.766-3.644 14.355 14.355 0 0 1 .217-3.699c.255-1.212.641-2.441 1.416-3.485ZM190.306 186.219a54.36 54.36 0 0 0 3.583 4.67c1.265 1.46 2.565 2.89 3.898 4.289 1.31 1.436 2.674 2.851 3.947 4.383 1.279 1.518 2.535 3.129 3.428 4.974a79.767 79.767 0 0 1-4.767-3.621 46.757 46.757 0 0 1-4.392-4.075c-1.354-1.489-2.646-3.076-3.666-4.858-1.026-1.764-1.83-3.719-2.031-5.762Z"/></g><path d="M386.066 188.773c-17.107-13.934-57.418 37.979-57.418 37.979l-33.845 39.9-30.422-26.569c-5.411 8.489-18.534 24.421-23.527 33.167 23.153 29.608 64.081 62.189 69.765 57.022 62.463-56.785 99.778-121.681 75.447-141.499ZM529.943 112.942l12.318-12.318h46.393c9.443 0 17.098-7.655 17.098-17.097v-3.711c0-9.443-7.655-17.098-17.098-17.098H547.04c-9.443 0-17.097 7.655-17.097 17.098v33.126Z" fill="#8FC6C6"/><path d="M581.114 81.197a4.26 4.26 0 0 0 2.615 4.007 4.26 4.26 0 0 0 5.609-2.352 4.26 4.26 0 0 0-.972-4.621 4.262 4.262 0 0 0-5.977 0 4.267 4.267 0 0 0-1.275 2.966ZM565.477 81.197a4.27 4.27 0 0 0 2.633 3.94 4.267 4.267 0 0 0 5.572-2.31 4.263 4.263 0 0 0-6.956-4.646c-.8.8-1.249 1.885-1.249 3.016ZM549.841 81.197a4.26 4.26 0 0 0 1.222 3.063 4.266 4.266 0 0 0 6.083 0 4.267 4.267 0 0 0-.053-6.03 4.266 4.266 0 0 0-5.977 0 4.267 4.267 0 0 0-1.275 2.967Z" fill="#fff"/><mask id="f" style="mask-type:luminance" maskUnits="userSpaceOnUse" x="591" y="53" width="19" height="19"><path d="M591.358 53.496h17.65v17.65h-17.65v-17.65Z" fill="#fff"/></mask><g mask="url(#f)"><path d="M609.008 62.32a8.823 8.823 0 0 1-2.53 6.341 8.839 8.839 0 0 1-6.296 2.64 8.825 8.825 0 0 1-8.825-8.98 8.828 8.828 0 0 1 8.825-8.673 8.825 8.825 0 0 1 8.826 8.673Z" fill="#206BC7"/></g><path d="m519.745 60.33-12.318-12.32h-46.394c-9.442 0-17.097-7.654-17.097-17.098v-3.71c0-9.442 7.655-17.097 17.097-17.097h41.615c9.443 0 17.097 7.655 17.097 17.098v33.126Z" fill="#FFB701"/><path d="M468.573 28.584a4.263 4.263 0 1 1-8.527.001 4.263 4.263 0 0 1 8.527-.001ZM484.211 28.584a4.27 4.27 0 0 1-4.267 4.372 4.265 4.265 0 0 1-4.264-4.375 4.266 4.266 0 0 1 8.531.003ZM499.845 28.584a4.263 4.263 0 1 1-8.527.001 4.263 4.263 0 0 1 8.527-.001Z" fill="#fff"/><mask id="g" style="mask-type:luminance" maskUnits="userSpaceOnUse" x="618" y="75" width="250" height="146"><path d="M618.654 75.413h248.494v144.713H618.654V75.413Z" fill="#fff"/></mask><g mask="url(#g)"><path d="m618.654 220.126 40.382-35.496h152.068c30.954 0 56.044-22.056 56.044-49.264V124.68c0-27.21-25.09-49.267-56.044-49.267H674.698c-30.952 0-56.044 22.057-56.044 49.267v95.446Z" fill="#E1E8F0" opacity=".51"/></g><path d="M720.971 152.684h-62.53v-46.139h62.53v46.139Z" fill="#FFB701"/><path d="m658.411 105.766 26.927 26.928c2.391 2.39 6.276 2.376 8.681-.029l27.106-27.104-62.714.205Z" fill="#FFE25E"/><mask id="h" style="mask-type:luminance" maskUnits="userSpaceOnUse" x="699" y="141" width="18" height="3"><path d="M699.109 141.449h17.474v1.559h-17.474v-1.559Z" fill="#fff"/></mask><g mask="url(#h)"><path d="M715.803 143.008h-15.916a.782.782 0 0 1-.779-.78.782.782 0 0 1 .779-.779h15.916a.785.785 0 0 1 .551.228.78.78 0 0 1-.551 1.331Z" fill="#fff" opacity=".73"/></g><path d="M679.739 138.589h-15.914a.772.772 0 0 1-.812-.779.786.786 0 0 1 .24-.563.775.775 0 0 1 .572-.216h15.914a.785.785 0 0 1 .552.228.772.772 0 0 1 .168.253.763.763 0 0 1 0 .596.772.772 0 0 1-.72.481ZM679.739 142.728h-15.914a.788.788 0 0 1-.572-.217.766.766 0 0 1-.24-.562.778.778 0 0 1 .812-.78h15.914a.782.782 0 0 1 .748.78.783.783 0 0 1-.748.779ZM831.647 119.622h-94.446a4.678 4.678 0 0 1-3.367-1.345 4.68 4.68 0 0 1 0-6.687 4.699 4.699 0 0 1 3.367-1.345h94.446a4.692 4.692 0 0 1 4.61 4.689 4.687 4.687 0 0 1-4.61 4.688ZM787.214 134.845h-52.115a2.587 2.587 0 0 1 0-5.174h52.115a2.587 2.587 0 0 1 0 5.174ZM787.214 146.231h-52.115a2.586 2.586 0 1 1 0-5.174h52.115c.686 0 1.344.272 1.829.758a2.583 2.583 0 0 1 0 3.659 2.586 2.586 0 0 1-1.829.757Z" fill="#fff"/><path d="M699.691 388.226H559.94l-11.631-47.559h139.75l11.632 47.559Z" fill="#FFB701"/><path d="M593.209 365.663a6.763 6.763 0 0 1-2.164-.353 7.238 7.238 0 0 1-1.92-1.02 7.31 7.31 0 0 1-1.496-1.537 6.109 6.109 0 0 1-.897-1.93c-.187-.698-.232-1.337-.134-1.917a3.4 3.4 0 0 1 .672-1.537c.35-.444.808-.784 1.374-1.02.563-.244 1.22-.367 1.971-.367.741 0 1.459.123 2.153.367a6.77 6.77 0 0 1 1.903 1.007 6.621 6.621 0 0 1 1.495 1.536c.421.589.725 1.233.912 1.931.187.698.228 1.341.123 1.93a3.217 3.217 0 0 1-.672 1.537c-.343.435-.797.775-1.36 1.02-.565.235-1.219.353-1.96.353Zm-.241-.897c.592 0 1.11-.095 1.557-.286a2.724 2.724 0 0 0 1.087-.829c.278-.363.457-.78.537-1.251.078-.48.04-1.006-.113-1.577a4.87 4.87 0 0 0-.729-1.564 5.49 5.49 0 0 0-1.207-1.251 5.197 5.197 0 0 0-1.532-.829 4.981 4.981 0 0 0-1.713-.299c-.591 0-1.113.099-1.567.299-.455.19-.822.467-1.1.829a2.853 2.853 0 0 0-.538 1.251c-.08.471-.044.993.109 1.564a4.96 4.96 0 0 0 .729 1.563c.345.481.748.902 1.211 1.265.471.353.986.63 1.546.829a5.283 5.283 0 0 0 1.723.286Zm7.72.816-2.551-9.518h.859l9.014 8.267h-.45l-2.216-8.267h1.028l2.55 9.518h-.858l-9-8.267h.45l2.215 8.267h-1.041Zm15.134 0-2.55-9.518h1.042l2.317 8.647h5.518l.233.871h-6.56Zm8.289 0-2.55-9.518h1.042l2.55 9.518h-1.042Zm4.248 0-2.55-9.518h.858l9.014 8.267h-.45l-2.215-8.267h1.027l2.551 9.518h-.859l-9-8.267h.451l2.215 8.267h-1.042Zm10.97-5.262h5.208l.23.856h-5.209l-.229-.856Zm1.289 4.391h5.926l.233.871h-6.967l-2.551-9.518h6.757l.233.87h-5.715l2.084 7.777Z" fill="#fff"/><path d="M531.515 405.842c1.061 3.958 5.13 7.168 9.089 7.168 3.958 0 6.309-3.21 5.248-7.168-1.062-3.96-5.131-7.168-9.089-7.168-3.959 0-6.308 3.208-5.248 7.168Z" fill="#206BC7"/><mask id="i" style="mask-type:luminance" maskUnits="userSpaceOnUse" x="546" y="367" width="30" height="29"><path d="M546.362 367.766h29.166v28.164h-29.166v-28.164Z" fill="#fff"/></mask><g mask="url(#i)"><path d="M546.864 381.847c2.082 7.777 10.077 14.083 17.854 14.083 7.778 0 12.394-6.306 10.308-14.083-2.082-7.777-10.077-14.083-17.854-14.083-7.778 0-12.392 6.306-10.308 14.083Z" fill="#206BC7"/></g><path d="m551.641 390.338-8.321-2.627c-.802-.252-1.064-1.294-.386-1.524l15.399-5.212c.572-.194 1.313.4 1.271 1.022l-1.148 16.814c-.051.736-1.096.727-1.528-.012l-4.646-7.944a1.166 1.166 0 0 0-.641-.517Z" fill="#8FC6C6"/><path d="M246.766 131.785c0-13.628-11.047-24.674-24.675-24.674-13.626 0-24.674 11.046-24.674 24.674 0 13.627 23.481 35.022 23.481 35.022s25.868-21.395 25.868-35.022Z" fill="#FFB701"/><mask id="j" style="mask-type:luminance" maskUnits="userSpaceOnUse" x="203" y="107" width="44" height="40"><path d="M203.885 107.111h42.844v39.29h-42.844v-39.29Z" fill="#fff"/></mask><g mask="url(#j)"><path d="M205.519 113.544a21.61 21.61 0 0 0-1.634 8.393c.029 10.508 7.578 21.919 18.26 24.096 10.242 2.088 21.5-4.948 24.532-14.808.02-.065.033-.131.053-.196-.404-13.275-11.265-23.919-24.637-23.919-6.388 0-12.191 2.45-16.574 6.434Z" fill="#FFE25E" opacity=".55"/></g><path d="M217.95 160.577a32.26 32.26 0 0 1-4.728-1.529c4.24 4.625 7.676 7.759 7.676 7.759s2.548-2.108 6.044-5.422c-3.027.127-6.053-.124-8.992-.808Z" fill="#FFE25E"/><path d="M214.929 155.662s3.184-25.868-.398-24.277c-3.582 1.592-5.572 5.572-1.592 6.368 3.98.797 19.899 0 19.899 0s1.419-4.527-1.195-5.571c-3.98-1.592-3.98 13.531-4.774 24.276" stroke="#fff" stroke-width=".657" stroke-miterlimit="10"/><path d="M230.847 161.234h-19.898a2.784 2.784 0 0 1-2.726-2.786 2.785 2.785 0 0 1 2.726-2.786h19.898a2.785 2.785 0 1 1 0 5.572Z" fill="#E1E8F0"/><path d="M221.297 173.969a11.54 11.54 0 0 1-11.542-11.542v-1.989h23.083v1.989a11.542 11.542 0 0 1-11.541 11.542Z" fill="#E1E8F0"/><mask id="k" style="mask-type:luminance" maskUnits="userSpaceOnUse" x="211" y="160" width="22" height="13"><path d="M211.314 160.438h21.523v12.473h-21.523v-12.473Z" fill="#fff"/></mask><g mask="url(#k)"><path d="M226.103 172.91c3.971-1.824 6.735-5.826 6.735-10.482v-1.99h-21.523c4.898 4.195 9.831 8.348 14.788 12.472Z" fill="#E1E8F0"/></g><path d="M177.603 131.941h11.216M256.113 131.941h11.216M190.743 100.219l7.931 7.93M222.466 87.08v11.216M254.189 100.219l-7.931 7.93" stroke="#FFB701" stroke-width="1.687" stroke-miterlimit="10" stroke-linecap="round"/><mask id="l" style="mask-type:luminance" maskUnits="userSpaceOnUse" x="0" y="0" width="322" height="247"><path d="M.85.546h320.666v245.892H.849V.546Z" fill="#fff"/></mask><g mask="url(#l)"><mask id="m" style="mask-type:luminance" maskUnits="userSpaceOnUse" x="134" y="0" width="188" height="191"><path d="M134.932.546h186.584v189.501H134.932V.546Z" fill="#fff"/></mask><g mask="url(#m)"><path d="M246.449 49.628c55.387 28.236 29.797 103.477-31.327 92.092a7.109 7.109 0 0 1-1.912-.651c-55.353-28.254-29.771-103.451 31.325-92.09a7.154 7.154 0 0 1 1.914.65ZM198.003 24.61l-6.841-9.775c-1.907-2.724-5.576-3.505-8.464-1.859a93.673 93.673 0 0 0-23.84 19.343c-2.193 2.477-2.195 6.21.055 8.637l8.206 8.853c1.916 2.067 2.27 5.158.802 7.562a73.073 73.073 0 0 0-6.234 12.924c-.87 2.374-3.153 3.941-5.681 4.038l-13.796.53c-3.063.118-5.591 2.402-6.077 5.428a95.464 95.464 0 0 0 .226 31.546c.555 3.15 3.331 5.424 6.527 5.314l12.74-.439c2.699-.093 5.196 1.507 6.137 4.036a72.18 72.18 0 0 0 6.199 12.703c1.368 2.226 1.16 5.077-.443 7.142l-8.141 10.491c-1.916 2.471-1.751 5.959.359 8.267a95.478 95.478 0 0 0 24.805 19.403c2.78 1.512 6.251.792 8.171-1.724l7.898-10.35c1.622-2.125 4.403-3.028 6.948-2.207a73.283 73.283 0 0 0 14.915 3.143 6.338 6.338 0 0 1 5.609 5.345l1.795 11.664c.509 3.309 3.492 5.643 6.832 5.404 10.467-.745 20.637-3.216 30.385-7.389 2.767-1.186 4.409-4.064 3.884-7.027l-2.496-14.138c-.424-2.404.528-4.888 2.541-6.27a72.133 72.133 0 0 0 10.61-8.888c1.985-2.02 5.078-2.44 7.558-1.072l10.526 5.811a6.402 6.402 0 0 0 8.378-1.999 95.988 95.988 0 0 0 13.182-28.302c.829-2.979-.551-6.135-3.324-7.5l-12.167-5.994c-2.301-1.134-3.744-3.542-3.536-6.1a72.338 72.338 0 0 0-.239-14.12c-.313-2.722 1.226-5.318 3.726-6.438l11.418-5.11a6.407 6.407 0 0 0 3.502-7.722 95.941 95.941 0 0 0-5.672-14.336 95.826 95.826 0 0 0-8.067-13.47 6.414 6.414 0 0 0-8.305-1.892l-10.855 5.991a6.324 6.324 0 0 1-7.447-.962 72.41 72.41 0 0 0-12.108-9.415 6.326 6.326 0 0 1-2.759-7.033l3.209-11.902a6.412 6.412 0 0 0-3.843-7.624A96.031 96.031 0 0 0 234.537.554a6.413 6.413 0 0 0-6.651 5.297l-2.125 12.26a6.324 6.324 0 0 1-5.4 5.206 72.122 72.122 0 0 0-15.04 3.636 6.33 6.33 0 0 1-7.318-2.343Z" fill="#E1E8F0"/></g><mask id="n" style="mask-type:luminance" maskUnits="userSpaceOnUse" x="0" y="93" width="152" height="154"><path d="M.85 93.725h150.363v152.713H.849V93.726Z" fill="#fff"/></mask><g mask="url(#n)"><path d="M90.717 133.28c44.636 22.755 24.012 83.389-25.244 74.215a5.74 5.74 0 0 1-1.543-.526c-44.605-22.769-23.99-83.368 25.246-74.213.528.097 1.062.28 1.54.524Zm-39.04-20.162-5.515-7.878c-1.534-2.194-4.492-2.822-6.82-1.497a75.484 75.484 0 0 0-19.21 15.588c-1.77 1.996-1.77 5.004.044 6.96l6.613 7.134c1.543 1.666 1.828 4.158.645 6.095a58.948 58.948 0 0 0-5.024 10.415c-.7 1.914-2.54 3.176-4.578 3.254l-11.118.427c-2.468.095-4.505 1.935-4.897 4.373A76.925 76.925 0 0 0 2 183.412a5.172 5.172 0 0 0 5.26 4.283l10.266-.355c2.174-.075 4.188 1.215 4.947 3.252a57.649 57.649 0 0 0 2.324 5.4 58.704 58.704 0 0 0 2.67 4.837c1.103 1.796.935 4.091-.357 5.756l-6.56 8.455a5.168 5.168 0 0 0 .29 6.661 76.902 76.902 0 0 0 19.99 15.638 5.17 5.17 0 0 0 6.583-1.388l6.365-8.343a5.091 5.091 0 0 1 5.599-1.779 58.812 58.812 0 0 0 12.019 2.532 5.108 5.108 0 0 1 4.521 4.31l1.447 9.398c.409 2.668 2.814 4.547 5.506 4.356a75.516 75.516 0 0 0 24.486-5.956c2.229-.953 3.553-3.273 3.132-5.661l-2.014-11.393c-.341-1.939.427-3.94 2.048-5.054a58.1 58.1 0 0 0 8.551-7.164 5.088 5.088 0 0 1 6.089-.862l8.483 4.682a5.164 5.164 0 0 0 6.753-1.61 77.352 77.352 0 0 0 10.621-22.81 5.175 5.175 0 0 0-2.677-6.042l-9.805-4.831c-1.855-.915-3.017-2.853-2.85-4.916a58.16 58.16 0 0 0-.193-11.379c-.251-2.193.987-4.286 3.003-5.188l9.201-4.117a5.163 5.163 0 0 0 2.823-6.223 77.104 77.104 0 0 0-11.074-22.409 5.165 5.165 0 0 0-6.69-1.524l-8.748 4.828a5.106 5.106 0 0 1-3.128.599 5.102 5.102 0 0 1-2.872-1.375 58.418 58.418 0 0 0-9.759-7.587 5.098 5.098 0 0 1-2.225-5.669l2.587-9.59a5.168 5.168 0 0 0-3.096-6.143 77.34 77.34 0 0 0-24.399-5.299A5.165 5.165 0 0 0 75.758 98l-1.712 9.882a5.1 5.1 0 0 1-4.353 4.194 58.06 58.06 0 0 0-12.119 2.931 5.101 5.101 0 0 1-5.897-1.889Z" fill="#E1E8F0"/></g></g><path d="M69.376 395.93c0-8.878-7.198-16.076-16.076-16.076-8.879 0-16.076 7.198-16.076 16.076s7.197 16.077 16.076 16.077c8.878 0 16.076-7.199 16.076-16.077ZM39.1 357.615a7.907 7.907 0 0 0-7.906-7.905 7.907 7.907 0 0 0-7.905 7.905 7.904 7.904 0 1 0 15.81 0ZM115.594 66.372a7.907 7.907 0 0 0-7.905-7.905 7.906 7.906 0 1 0 7.905 7.905ZM742.425 462.378a7.904 7.904 0 1 0-15.809 0 7.904 7.904 0 0 0 15.809 0ZM680.132 215.075a7.9 7.9 0 0 0-2.316-5.589 7.899 7.899 0 0 0-11.177 0 7.9 7.9 0 0 0 0 11.177 7.9 7.9 0 0 0 11.177 0 7.9 7.9 0 0 0 2.316-5.588ZM362.347 88.475c0-7.538-6.111-13.65-13.651-13.65-7.538 0-13.65 6.112-13.65 13.65 0 7.539 6.112 13.651 13.65 13.651 7.54 0 13.651-6.112 13.651-13.65Z" fill="#FFB701"/></svg>