<svg width="227" height="27" fill="none" xmlns="http://www.w3.org/2000/svg"><g clip-path="url(#a)"><mask id="b" style="mask-type:luminance" maskUnits="userSpaceOnUse" x="-2" y="0" width="231" height="27"><path d="M-2 0h231v27H-2V0Z" fill="#fff"/></mask><g mask="url(#b)"><path d="M13.03 15.09c1.247.27 2.246.9 3.002 1.883.76.982 1.14 2.11 1.14 3.373 0 1.824-.631 3.272-1.89 4.34-1.258 1.064-3.008 1.598-5.254 1.598H0V4.458h9.688c2.19 0 3.902.51 5.136 1.528 1.236 1.016 1.857 2.394 1.857 4.135 0 1.285-.334 2.352-1.001 3.2-.665.85-1.548 1.44-2.652 1.77l.002-.002Zm-7.787-1.803h3.434c.858 0 1.517-.19 1.975-.573.46-.383.692-.95.692-1.694s-.232-1.319-.692-1.71c-.458-.39-1.117-.588-1.975-.588H5.243v4.567-.002Zm3.863 8.704c.879 0 1.558-.202 2.039-.603.48-.407.718-.993.718-1.76 0-.766-.25-1.367-.752-1.803-.5-.435-1.19-.652-2.069-.652H5.24v4.818h3.866ZM25.355 4.458V17.52c0 1.305.315 2.313.948 3.018.634.702 1.566 1.052 2.795 1.052 1.23 0 2.162-.35 2.816-1.052.657-.705.984-1.71.984-3.018V4.46h5.242v13.027c0 1.948-.408 3.596-1.229 4.943-.817 1.347-1.913 2.36-3.296 3.044-1.382.684-2.92 1.026-4.614 1.026s-3.214-.337-4.55-1.01c-1.339-.67-2.397-1.687-3.173-3.044-.777-1.36-1.165-3.013-1.165-4.962V4.456h5.242v.002ZM54.85 15.09c1.247.27 2.246.9 3.002 1.884.759.982 1.14 2.11 1.14 3.373 0 1.824-.632 3.272-1.891 4.34-1.257 1.064-3.008 1.598-5.253 1.598H41.819V4.458h9.689c2.19 0 3.901.51 5.135 1.528 1.237 1.016 1.858 2.394 1.858 4.135 0 1.285-.335 2.352-1.002 3.2-.664.85-1.548 1.44-2.652 1.77l.003-.002Zm-7.788-1.802h3.434c.859 0 1.518-.19 1.975-.573.46-.383.693-.95.693-1.694s-.233-1.319-.693-1.71c-.457-.39-1.116-.588-1.975-.588h-3.434v4.567-.002Zm3.863 8.704c.88 0 1.559-.202 2.04-.603.48-.407.717-.993.717-1.76 0-.766-.25-1.367-.751-1.803-.5-.435-1.19-.652-2.07-.652H47.06v4.818h3.865Zm24.129-6.902c1.247.27 2.246.9 3.002 1.884.76.982 1.14 2.11 1.14 3.373 0 1.824-.631 3.272-1.89 4.34-1.258 1.064-3.008 1.598-5.254 1.598H62.024V4.458h9.688c2.19 0 3.902.51 5.136 1.528 1.237 1.016 1.857 2.394 1.857 4.135 0 1.285-.334 2.352-1.001 3.2-.664.85-1.548 1.44-2.652 1.77l.002-.002Zm-7.787-1.802H70.7c.858 0 1.517-.19 1.975-.573.46-.383.692-.95.692-1.694s-.232-1.319-.692-1.71c-.458-.39-1.117-.588-1.975-.588h-3.434v4.567l.001-.002Zm3.863 8.704c.879 0 1.558-.202 2.039-.603.48-.407.718-.993.718-1.76 0-.766-.25-1.367-.751-1.803-.501-.435-1.191-.652-2.07-.652h-3.802v4.818h3.866Zm16.341.19h6.868v4.1H82.23V4.455h5.242l-.001 17.725Zm14.625-13.462v4.415h7.021v4.1h-7.021v4.788h7.941v4.26H96.853V4.454h13.184V8.72h-7.941Zm23.873 4.443v4.415h-13.285v-4.415h13.285Zm19.538-1.803a3.976 3.976 0 0 0-1.671-1.663c-.723-.384-1.579-.578-2.56-.578-1.696 0-3.056.565-4.078 1.694-1.022 1.13-1.532 2.638-1.532 4.524 0 2.013.533 3.583 1.607 4.712 1.075 1.13 2.552 1.695 4.432 1.695 1.288 0 2.377-.332 3.263-.993.889-.666 1.541-1.619 1.95-2.86h-6.654v-3.92h11.408v4.944c-.388 1.33-1.047 2.562-1.98 3.702-.93 1.137-2.11 2.06-3.538 2.764-1.431.704-3.046 1.057-4.845 1.057-2.125 0-4.021-.472-5.689-1.415a9.996 9.996 0 0 1-3.892-3.93c-.93-1.678-1.395-3.6-1.395-5.759 0-2.158.465-4.075 1.395-5.764a10.015 10.015 0 0 1 3.876-3.946c1.656-.945 3.549-1.42 5.675-1.42 2.575 0 4.747.635 6.515 1.9 1.77 1.264 2.941 3.015 3.513 5.25h-5.797v.006h-.003Zm20.051 14.925-4.476-8.236h-1.257v8.236h-5.243V4.458h8.8c1.696 0 3.142.303 4.338.906 1.196.601 2.09 1.425 2.683 2.472.592 1.044.889 2.207.889 3.492 0 1.453-.404 2.751-1.214 3.891-.807 1.138-1.995 1.946-3.567 2.422l4.967 8.64h-5.92v.003Zm-5.73-12h3.252c.958 0 1.676-.238 2.157-.713.482-.476.723-1.152.723-2.023 0-.87-.243-1.484-.723-1.958-.481-.477-1.199-.718-2.157-.718h-3.252v5.415-.003Zm19.99-5.565v4.415h7.021v4.1h-7.021v4.788h7.94v4.26h-13.183V4.454h13.183V8.72h-7.94Zm16.586 0v4.415h7.021v4.1h-7.021v4.788h7.941v4.26h-13.183V4.454h13.183V8.72h-7.941ZM227 26.284h-5.243l-8.766-13.46v13.46h-5.243V4.458h5.243l8.766 13.526V4.458H227v21.826Z" fill="#fff"/><mask id="c" style="mask-type:luminance" maskUnits="userSpaceOnUse" x="121" y="4" width="6" height="14"><path d="M126.285 4h-4.614v13.472h4.614V4Z" fill="#fff"/></mask><g mask="url(#c)"><path d="M121.95 4h4.335v13.472h-4.335V4Z" fill="#97F700"/></g><mask id="d" style="mask-type:luminance" maskUnits="userSpaceOnUse" x="112" y="12" width="15" height="6"><path d="M126.28 12.871h-13.63v4.7h13.63v-4.7Z" fill="#fff"/></mask><g mask="url(#d)"><path d="M112.65 13.166h13.63v4.406h-13.63v-4.406Z" fill="#97F700"/></g><mask id="e" style="mask-type:luminance" maskUnits="userSpaceOnUse" x="139" y="14" width="14" height="5"><path d="M152.286 14.002H139v4.621h13.286v-4.621Z" fill="#fff"/></mask><g mask="url(#e)"><path d="M139 14.002h13.286v4.396H139v-4.396Z" fill="#97F700"/></g><mask id="f" style="mask-type:luminance" maskUnits="userSpaceOnUse" x="147" y="14" width="6" height="14"><path d="M152.475 14.001h-4.714v13.471h4.714V14v.001Z" fill="#fff"/></mask><g mask="url(#f)"><path d="M148.078 14.001h4.397v13.471h-4.397V14v.001Z" fill="#97F700"/></g></g></g><defs><clipPath id="a"><path fill="#fff" d="M0 0h227v27H0z"/></clipPath></defs></svg>