<svg width="21" height="16" viewBox="0 0 21 16" fill="none" xmlns="http://www.w3.org/2000/svg">
<path d="M7.8999 0C3.7599 0 0.399902 2.69 0.399902 6C0.399902 7.89 1.4799 9.56 3.1799 10.66L2.3999 13L4.8999 11.5C5.7899 11.81 6.7699 12 7.8099 12C7.5499 11.37 7.3999 10.7 7.3999 10C7.3999 6.69 10.5299 4 14.3999 4C14.5899 4 14.7799 4 14.9599 4.03C13.9399 1.69 11.1799 0 7.8999 0ZM4.8999 2.5C5.16512 2.5 5.41947 2.60536 5.60701 2.79289C5.79455 2.98043 5.8999 3.23478 5.8999 3.5C5.8999 3.76522 5.79455 4.01957 5.60701 4.20711C5.41947 4.39464 5.16512 4.5 4.8999 4.5C4.63469 4.5 4.38033 4.39464 4.1928 4.20711C4.00526 4.01957 3.8999 3.76522 3.8999 3.5C3.8999 3.23478 4.00526 2.98043 4.1928 2.79289C4.38033 2.60536 4.63469 2.5 4.8999 2.5ZM9.8999 2.5C10.1651 2.5 10.4195 2.60536 10.607 2.79289C10.7945 2.98043 10.8999 3.23478 10.8999 3.5C10.8999 3.76522 10.7945 4.01957 10.607 4.20711C10.4195 4.39464 10.1651 4.5 9.8999 4.5C9.63469 4.5 9.38033 4.39464 9.1928 4.20711C9.00526 4.01957 8.8999 3.76522 8.8999 3.5C8.8999 3.23478 9.00526 2.98043 9.1928 2.79289C9.38033 2.60536 9.63469 2.5 9.8999 2.5ZM14.3999 5C11.0899 5 8.3999 7.24 8.3999 10C8.3999 12.76 11.0899 15 14.3999 15C15.0699 15 15.7099 14.92 16.3099 14.75L18.3999 16L17.7799 14.13C19.3499 13.22 20.3999 11.71 20.3999 10C20.3999 7.24 17.7099 5 14.3999 5ZM12.3999 7.5C12.6651 7.5 12.9195 7.60536 13.107 7.79289C13.2945 7.98043 13.3999 8.23478 13.3999 8.5C13.3999 8.76522 13.2945 9.01957 13.107 9.20711C12.9195 9.39464 12.6651 9.5 12.3999 9.5C12.1347 9.5 11.8803 9.39464 11.6928 9.20711C11.5053 9.01957 11.3999 8.76522 11.3999 8.5C11.3999 8.23478 11.5053 7.98043 11.6928 7.79289C11.8803 7.60536 12.1347 7.5 12.3999 7.5ZM16.3999 7.5C16.6651 7.5 16.9195 7.60536 17.107 7.79289C17.2945 7.98043 17.3999 8.23478 17.3999 8.5C17.3999 8.76522 17.2945 9.01957 17.107 9.20711C16.9195 9.39464 16.6651 9.5 16.3999 9.5C16.1347 9.5 15.8803 9.39464 15.6928 9.20711C15.5053 9.01957 15.3999 8.76522 15.3999 8.5C15.3999 8.23478 15.5053 7.98043 15.6928 7.79289C15.8803 7.60536 16.1347 7.5 16.3999 7.5Z" fill="#96F50A"/>
</svg>
