<svg width="25" height="24" viewBox="0 0 25 24" fill="none" xmlns="http://www.w3.org/2000/svg">
<path d="M21.1604 12.73C20.7904 12.73 20.4804 12.45 20.4404 12.08C20.2004 9.88 19.0204 7.9 17.2004 6.64C16.8704 6.41 16.7904 5.96 17.0204 5.63C17.2504 5.3 17.7004 5.22 18.0304 5.45C20.2004 6.96 21.6004 9.32 21.8904 11.93C21.9304 12.33 21.6404 12.69 21.2404 12.73C21.2104 12.73 21.1904 12.73 21.1604 12.73Z" fill="#96F50A"/>
<path d="M4.54009 12.78C4.52009 12.78 4.49009 12.78 4.47009 12.78C4.07009 12.74 3.78009 12.38 3.82009 11.98C4.09009 9.37 5.47009 7.01 7.62009 5.49C7.94009 5.26 8.40009 5.34 8.63009 5.66C8.86009 5.99 8.78009 6.44 8.46009 6.67C6.66009 7.95 5.49009 9.93 5.27009 12.12C5.23009 12.5 4.91009 12.78 4.54009 12.78Z" fill="#96F50A"/>
<path d="M16.7904 21.1C15.5604 21.69 14.2404 21.99 12.8604 21.99C11.4204 21.99 10.0504 21.67 8.77039 21.02C8.41039 20.85 8.27039 20.41 8.45039 20.05C8.62039 19.69 9.06039 19.55 9.42039 19.72C10.0504 20.04 10.7204 20.26 11.4004 20.39C12.3204 20.57 13.2604 20.58 14.1804 20.42C14.8604 20.3 15.5304 20.09 16.1504 19.79C16.5204 19.62 16.9604 19.76 17.1204 20.13C17.3004 20.49 17.1604 20.93 16.7904 21.1Z" fill="#96F50A"/>
<path d="M12.8503 2.00999C11.3003 2.00999 10.0303 3.26999 10.0303 4.82999C10.0303 6.38999 11.2903 7.64999 12.8503 7.64999C14.4103 7.64999 15.6703 6.38999 15.6703 4.82999C15.6703 3.26999 14.4103 2.00999 12.8503 2.00999Z" fill="#96F50A"/>
<path d="M5.85027 13.87C4.30027 13.87 3.03027 15.13 3.03027 16.69C3.03027 18.25 4.29027 19.51 5.85027 19.51C7.41027 19.51 8.67027 18.25 8.67027 16.69C8.67027 15.13 7.40027 13.87 5.85027 13.87Z" fill="#96F50A"/>
<path d="M19.7502 13.87C18.2002 13.87 16.9302 15.13 16.9302 16.69C16.9302 18.25 18.1902 19.51 19.7502 19.51C21.3102 19.51 22.5702 18.25 22.5702 16.69C22.5702 15.13 21.3102 13.87 19.7502 13.87Z" fill="#96F50A"/>
</svg>
