<svg width="20" height="20" viewBox="0 0 20 20" fill="none" xmlns="http://www.w3.org/2000/svg">
<path d="M9.00023 4H12.0002L15.2902 0.700004C15.3832 0.606275 15.4938 0.531881 15.6156 0.481112C15.7375 0.430344 15.8682 0.404205 16.0002 0.404205C16.1322 0.404205 16.2629 0.430344 16.3848 0.481112C16.5067 0.531881 16.6173 0.606275 16.7102 0.700004L19.2902 3.29C19.4765 3.47737 19.581 3.73082 19.581 3.995C19.581 4.25919 19.4765 4.51264 19.2902 4.7L17.0002 7H9.00023V9C9.00023 9.26522 8.89487 9.51957 8.70733 9.70711C8.5198 9.89465 8.26544 10 8.00023 10C7.73501 10 7.48066 9.89465 7.29312 9.70711C7.10558 9.51957 7.00023 9.26522 7.00023 9V6C7.00023 5.46957 7.21094 4.96086 7.58601 4.58579C7.96109 4.21072 8.46979 4 9.00023 4ZM3.00023 9V13L0.710226 15.29C0.523975 15.4774 0.419434 15.7308 0.419434 15.995C0.419434 16.2592 0.523975 16.5126 0.710226 16.7L3.29023 19.29C3.38319 19.3837 3.49379 19.4581 3.61565 19.5089C3.73751 19.5597 3.86821 19.5858 4.00023 19.5858C4.13224 19.5858 4.26294 19.5597 4.3848 19.5089C4.50666 19.4581 4.61726 19.3837 4.71023 19.29L9.00023 15H13.0002C13.2654 15 13.5198 14.8946 13.7073 14.7071C13.8949 14.5196 14.0002 14.2652 14.0002 14V13H15.0002C15.2654 13 15.5198 12.8946 15.7073 12.7071C15.8949 12.5196 16.0002 12.2652 16.0002 12V11H17.0002C17.2654 11 17.5198 10.8946 17.7073 10.7071C17.8949 10.5196 18.0002 10.2652 18.0002 10V9H11.0002V10C11.0002 10.5304 10.7895 11.0391 10.4144 11.4142C10.0394 11.7893 9.53066 12 9.00023 12H7.00023C6.46979 12 5.96109 11.7893 5.58601 11.4142C5.21094 11.0391 5.00023 10.5304 5.00023 10V7L3.00023 9Z" fill="#96F50A"/>
</svg>
