<svg width="15" height="20" viewBox="0 0 15 20" fill="none" xmlns="http://www.w3.org/2000/svg">
<path d="M4.6001 18H10.6001V19C10.6001 19.55 10.1501 20 9.6001 20H5.6001C5.0501 20 4.6001 19.55 4.6001 19V18ZM14.6001 7C14.6001 9.38 13.4101 11.47 11.6001 12.74V15C11.6001 15.55 11.1501 16 10.6001 16H4.6001C4.0501 16 3.6001 15.55 3.6001 15V12.74C1.7901 11.47 0.600098 9.38 0.600098 7C0.600098 3.13 3.7301 0 7.6001 0C11.4701 0 14.6001 3.13 14.6001 7ZM10.3101 6.29C9.9201 5.9 9.2801 5.9 8.8901 6.29L7.6001 7.59L6.3101 6.29C5.9201 5.9 5.2801 5.9 4.8901 6.29C4.5001 6.68 4.5001 7.32 4.8901 7.71L6.6001 9.41V14H8.6001V9.41L10.3101 7.71C10.7001 7.32 10.7001 6.68 10.3101 6.29Z" fill="#253946"/>
</svg>
