<svg width="25" height="24" viewBox="0 0 25 24" fill="none" xmlns="http://www.w3.org/2000/svg">
<path d="M17.7603 6.17C19.7603 7.56 21.1403 9.77 21.4203 12.32" stroke="#253946" stroke-width="1.5" stroke-linecap="round" stroke-linejoin="round"/>
<path d="M4.29053 12.37C4.55053 9.83 5.91053 7.62 7.89053 6.22" stroke="#253946" stroke-width="1.5" stroke-linecap="round" stroke-linejoin="round"/>
<path d="M8.99023 20.94C10.1502 21.53 11.4702 21.86 12.8602 21.86C14.2002 21.86 15.4602 21.56 16.5902 21.01" stroke="#253946" stroke-width="1.5" stroke-linecap="round" stroke-linejoin="round"/>
<path d="M12.8601 7.7C14.3954 7.7 15.6401 6.45535 15.6401 4.92C15.6401 3.38465 14.3954 2.14 12.8601 2.14C11.3247 2.14 10.0801 3.38465 10.0801 4.92C10.0801 6.45535 11.3247 7.7 12.8601 7.7Z" stroke="#253946" stroke-width="1.5" stroke-linecap="round" stroke-linejoin="round"/>
<path d="M5.6301 19.92C7.16545 19.92 8.4101 18.6754 8.4101 17.14C8.4101 15.6046 7.16545 14.36 5.6301 14.36C4.09475 14.36 2.8501 15.6046 2.8501 17.14C2.8501 18.6754 4.09475 19.92 5.6301 19.92Z" stroke="#253946" stroke-width="1.5" stroke-linecap="round" stroke-linejoin="round"/>
<path d="M19.9704 19.92C21.5058 19.92 22.7504 18.6754 22.7504 17.14C22.7504 15.6046 21.5058 14.36 19.9704 14.36C18.4351 14.36 17.1904 15.6046 17.1904 17.14C17.1904 18.6754 18.4351 19.92 19.9704 19.92Z" stroke="#253946" stroke-width="1.5" stroke-linecap="round" stroke-linejoin="round"/>
</svg>
